<svg width="16" height="16" viewBox="0 0 16 16" fill="none" xmlns="http://www.w3.org/2000/svg">
<path fill-rule="evenodd" clip-rule="evenodd" d="M5.26451 1.09619C5.06559 1.09619 4.87483 1.17521 4.73418 1.31586L1.31537 4.73466C1.17472 4.87532 1.0957 5.06608 1.0957 5.26499V10.7351C1.0957 10.934 1.17472 11.1248 1.31537 11.2654L4.73418 14.6842C4.87483 14.8249 5.06559 14.9039 5.26451 14.9039H10.7346C10.9335 14.9039 11.1243 14.8249 11.2649 14.6842L14.6837 11.2654C14.8244 11.1248 14.9034 10.934 14.9034 10.7351V5.26499C14.9034 5.06608 14.8244 4.87532 14.6837 4.73466L11.2649 1.31586C11.1243 1.17521 10.9335 1.09619 10.7346 1.09619H5.26451ZM8.74955 5.26499C8.74955 4.85078 8.41377 4.51499 7.99955 4.51499C7.58534 4.51499 7.24955 4.85078 7.24955 5.26499V8.6838C7.24955 9.09801 7.58534 9.4338 7.99955 9.4338C8.41377 9.4338 8.74955 9.09801 8.74955 8.6838V5.26499ZM8.68331 10.7351C8.68331 11.1127 8.37718 11.4188 7.99955 11.4188C7.62192 11.4188 7.31579 11.1127 7.31579 10.7351C7.31579 10.3574 7.62192 10.0513 7.99955 10.0513C8.37718 10.0513 8.68331 10.3574 8.68331 10.7351Z" fill="#D62F4B"/>
</svg>
