<svg width="16" height="16" viewBox="0 0 16 16" fill="none" xmlns="http://www.w3.org/2000/svg">
<path fill-rule="evenodd" clip-rule="evenodd" d="M7.99967 14.6667C11.6816 14.6667 14.6663 11.6819 14.6663 8.00004C14.6663 4.31814 11.6816 1.33337 7.99967 1.33337C4.31778 1.33337 1.33301 4.31814 1.33301 8.00004C1.33301 11.6819 4.31778 14.6667 7.99967 14.6667ZM11.1967 6.53037C11.4896 6.23748 11.4896 5.7626 11.1967 5.46971C10.9038 5.17682 10.4289 5.17682 10.136 5.46971L7.33301 8.27271L6.53 7.46971C6.23711 7.17682 5.76224 7.17682 5.46934 7.46971C5.17645 7.7626 5.17645 8.23748 5.46934 8.53037L6.80268 9.8637C7.09557 10.1566 7.57044 10.1566 7.86334 9.8637L11.1967 6.53037Z" fill="white"/>
</svg>
